<svg id="Group_9" data-name="Group 9" xmlns="http://www.w3.org/2000/svg" width="32.904" height="32.911" viewBox="0 0 32.904 32.911">
  <g id="instagram_2_" data-name="instagram (2)" transform="translate(0 0)">
    <path id="Path_7" data-name="Path 7" d="M33.27,9.676a12.026,12.026,0,0,0-.765-3.993A8.431,8.431,0,0,0,27.689.868,12.057,12.057,0,0,0,23.7.1C21.935.019,21.376,0,16.908,0S11.88.019,10.125.1A12.029,12.029,0,0,0,6.133.861a8.03,8.03,0,0,0-2.919,1.9,8.1,8.1,0,0,0-1.9,2.912A12.058,12.058,0,0,0,.552,9.669c-.084,1.762-.1,2.321-.1,6.789s.019,5.028.1,6.783a12.025,12.025,0,0,0,.765,3.993,8.429,8.429,0,0,0,4.815,4.815,12.058,12.058,0,0,0,3.993.765c1.755.077,2.314.1,6.783.1s5.028-.019,6.783-.1a12.023,12.023,0,0,0,3.992-.765,8.418,8.418,0,0,0,4.816-4.815,12.066,12.066,0,0,0,.765-3.993c.077-1.755.1-2.314.1-6.783S33.347,11.431,33.27,9.676ZM30.306,23.113a9.02,9.02,0,0,1-.566,3.054,5.459,5.459,0,0,1-3.125,3.125,9.052,9.052,0,0,1-3.054.566c-1.736.077-2.256.1-6.648.1s-4.918-.019-6.648-.1a9.016,9.016,0,0,1-3.054-.566,5.064,5.064,0,0,1-1.89-1.228,5.117,5.117,0,0,1-1.228-1.89,9.054,9.054,0,0,1-.566-3.054c-.077-1.736-.1-2.257-.1-6.648s.019-4.918.1-6.648A9.016,9.016,0,0,1,4.094,6.77,5,5,0,0,1,5.329,4.88a5.109,5.109,0,0,1,1.89-1.228,9.059,9.059,0,0,1,3.054-.566c1.736-.077,2.257-.1,6.648-.1s4.918.019,6.648.1a9.021,9.021,0,0,1,3.054.566,5.06,5.06,0,0,1,1.89,1.228A5.115,5.115,0,0,1,29.74,6.77a9.057,9.057,0,0,1,.566,3.054c.077,1.736.1,2.256.1,6.648S30.383,21.377,30.306,23.113Zm0,0" transform="translate(-0.449 0)" fill="#fff"/>
    <path id="Path_8" data-name="Path 8" d="M133.4,124.5a8.454,8.454,0,1,0,8.454,8.454A8.456,8.456,0,0,0,133.4,124.5Zm0,13.938a5.484,5.484,0,1,1,5.484-5.484A5.485,5.485,0,0,1,133.4,138.438Zm0,0" transform="translate(-116.945 -116.496)" fill="#fff"/>
    <path id="Path_9" data-name="Path 9" d="M366.4,90.575a1.974,1.974,0,1,1-1.974-1.974A1.974,1.974,0,0,1,366.4,90.575Zm0,0" transform="translate(-339.176 -82.905)" fill="#fff"/>
  </g>
</svg>
