<svg id="Group_10" data-name="Group 10" xmlns="http://www.w3.org/2000/svg" width="36.56" height="29.705" viewBox="0 0 36.56 29.705">
  <g id="twitter" transform="translate(0 0)">
    <g id="Group_8" data-name="Group 8" transform="translate(0)">
      <path id="Path_10" data-name="Path 10" d="M36.559,51.517A15.626,15.626,0,0,1,32.241,52.7a7.453,7.453,0,0,0,3.3-4.143,14.978,14.978,0,0,1-4.753,1.814A7.495,7.495,0,0,0,17.82,55.5a7.718,7.718,0,0,0,.174,1.709,21.215,21.215,0,0,1-15.449-7.84,7.5,7.5,0,0,0,2.3,10.017,7.4,7.4,0,0,1-3.386-.923v.082a7.529,7.529,0,0,0,6,7.364,7.48,7.48,0,0,1-1.965.247,6.628,6.628,0,0,1-1.419-.128,7.566,7.566,0,0,0,7,5.221,15.06,15.06,0,0,1-9.293,3.2A14.039,14.039,0,0,1,0,74.341,21.1,21.1,0,0,0,11.5,77.7C25.29,77.7,32.83,66.28,32.83,56.377c0-.331-.011-.651-.027-.969A14.952,14.952,0,0,0,36.559,51.517Z" transform="translate(0 -48)" fill="#fff"/>
    </g>
  </g>
</svg>
